<svg width="59" height="63" xmlns="http://www.w3.org/2000/svg">
 <!-- Created with Method Draw - http://github.com/duopixel/Method-Draw/ -->

 <g>
  <title>background</title>
  <rect fill="none" id="canvas_background" height="65" width="61" y="-1" x="-1"/>
  <g display="none" overflow="visible" y="0" x="0" height="100%" width="100%" id="canvasGrid">
   <rect fill="url(#gridpattern)" stroke-width="0" y="0" x="0" height="100%" width="100%"/>
  </g>
 </g>
 <g>
  <title>Layer 1</title>
  <path stroke="#000" id="svg_5" d="m29.500001,3.625374c-16.215622,0 -29.360638,12.479717 -29.360638,27.874628c0,15.394911 13.145017,27.874628 29.360638,27.874628c16.215622,0 29.360638,-12.479717 29.360638,-27.874628c0,-15.394911 -13.145017,-27.874628 -29.360638,-27.874628zm23.102261,30.540496c0.00202,0.003836 0.008081,0.003836 0.010101,0.007672c-0.044443,0.358646 -0.109087,0.70962 -0.171711,1.062512c-0.030302,-0.023015 -0.068685,-0.047947 -0.094946,-0.069044c-0.208074,-0.17261 -0.513114,-0.24549 -0.642403,-0.220557c-0.317161,0.061373 0.462611,0.584957 0.539376,0.655919c0.018181,0.017261 0.062624,0.057537 0.125248,0.111238c-2.078719,10.187837 -11.532949,17.909266 -22.865905,17.909266c-8.329016,0 -15.627762,-4.181002 -19.748837,-10.435245c0.248477,-0.030686 0.484832,-0.030686 0.565638,-0.14576c0.103027,-0.147678 0.206054,-0.462212 0.359584,-0.634822c0.15555,-0.170692 0.333322,-0.439197 0.256557,-0.560024c-0.078785,-0.122745 0.204034,-0.659755 0.177772,-0.803596c-0.026262,-0.14576 -0.256557,-0.49098 0.129289,-0.780582s0.795933,-0.732634 0.822195,-0.851544c0.024242,-0.120827 0.335342,-0.634822 0.30706,-0.878394c-0.024242,-0.243572 -0.30706,-0.537009 -0.484832,-0.609889c-0.181812,-0.070962 -0.565638,-0.095895 -0.719168,-0.289602c-0.15555,-0.197543 -0.589879,-0.389332 -0.74341,-0.341385c-0.15353,0.047947 -0.412107,0.095895 -0.616141,-0.028768c-0.206054,-0.118909 -0.539376,-0.266587 -0.666644,-0.362481c-0.131309,-0.095895 -0.462611,-0.168774 -0.616141,-0.168774c-0.15555,0 -0.131309,-0.09973 -0.359584,0.193707c-0.230295,0.293437 0,0.39125 -0.412107,0.339467c-0.412107,-0.044111 0.050503,-0.069044 0.284839,-0.362481c0.228275,-0.291519 -0.026262,-0.46413 -0.284839,-0.389332c-0.254537,0.07288 -0.076765,0.220557 -0.486852,0.293437c-0.410087,0.069044 -0.410087,-0.17261 -0.15353,-0.220557s0.717148,-0.266587 0.717148,-0.364399c0,-0.097812 -0.050503,-0.366317 -0.256557,-0.366317s-0.15555,-0.241654 -0.462611,-0.558106c-0.185852,-0.193707 -0.395946,-0.314534 -0.60402,-0.39125c-0.181812,-1.110459 -0.30302,-2.238179 -0.30302,-3.396585c0,-5.454482 2.09892,-10.444834 5.557391,-14.303631c0.048483,-0.038358 0.096966,-0.065208 0.139389,-0.069044c0.169691,-0.017261 0.626242,-0.047947 1.030269,-0.113156c0.408067,-0.065208 0.844416,-0.30878 0.987846,-0.293437c0.139389,0.015343 0.486852,0.015343 0.375745,-0.080551c-0.113128,-0.10932 -0.270698,-0.335631 -0.505034,-0.335631s-0.016161,-0.356728 0.046463,-0.356728c0.060604,0 0.375745,0.047947 0.359584,0.210968c-0.014141,0.163021 0.094946,0.372071 0.406047,0.30878c0.315141,-0.065208 0.266658,-0.310698 0.206054,-0.373989c-0.064644,-0.065208 -0.111107,-0.228229 -0.171711,-0.341385c-0.062624,-0.115073 -0.046463,-0.260833 0.282819,-0.293437c0.327262,-0.030686 0.779772,0.128499 0.763611,-0.130417s0,-0.537009 0.092926,-0.682769c0.094946,-0.143842 0.29898,-0.243572 0.187873,-0.291519c-0.107067,-0.047947 -0.248477,0.065208 -0.359584,-0.178364c-0.109087,-0.243572 0.094946,-0.421936 0.218175,-0.519748c0.040403,-0.028768 0.135349,-0.115073 0.250497,-0.214804c3.799873,-2.554631 8.425982,-4.071683 13.427836,-4.071683c6.490693,0 12.367265,2.53737 16.593387,6.616724c-0.016161,0.042194 -0.020201,0.09973 -0.062624,0.107402c-0.15555,0.024933 -0.335342,0.120827 -0.361604,-0.097812c-0.026262,-0.21864 -0.026262,-0.634822 -0.206054,-0.389332c-0.179792,0.243572 -0.256557,0.243572 -0.256557,0.366317c0,0.120827 0.15353,0.243572 0.103027,0.462212c-0.052524,0.21864 -0.052524,0.366317 0.028282,0.366317c0.072725,0 0.254537,-0.220557 0.482812,-0.270423c0.234336,-0.047947 0.644423,-0.168774 0.670685,0.049865c0.026262,0.220557 0.280799,0.291519 0.026262,0.389332c-0.258577,0.097812 -0.539376,0.049865 -0.591899,-0.097812c-0.050503,-0.147678 -0.230295,-0.147678 -0.410087,-0.024933c-0.177772,0.120827 -0.563618,0.560024 -0.563618,0.560024s-0.618161,0.266587 -0.692906,0.21864c-0.080805,-0.047947 0.204034,-0.316452 0.410087,-0.437279c0.206054,-0.122745 0.359584,-0.39125 0.282819,-0.46413c-0.076765,-0.07288 -0.177772,-0.535092 -0.127268,-0.657837c0.050503,-0.120827 0.280799,-0.291519 0.026262,-0.414264c-0.256557,-0.120827 -0.438369,-0.268505 -0.642403,-0.341385s-0.436349,0.291519 -0.616141,0.39125c-0.179792,0.097812 -0.15353,0.21864 -0.385846,0.243572c-0.230295,0.024933 -0.381805,0.316452 0,0.487144c0.385846,0.170692 0.515134,0.291519 0.412107,0.39125c-0.103027,0.097812 -0.539376,-0.047947 -0.539376,-0.047947s-0.333322,-0.14576 -0.541396,-0.14576c-0.204034,0 -0.462611,-0.120827 -0.666644,-0.14576c-0.206054,-0.024933 -0.618161,-0.024933 -0.717148,0.07288c-0.103027,0.097812 -0.361604,0.389332 -0.565638,0.291519c-0.204034,-0.097812 -0.204034,-0.195625 -0.486852,-0.097812c-0.282819,0.097812 -0.563618,-0.07288 -0.717148,0.07288c-0.15555,0.14576 -0.026262,0.14576 -0.515134,0c-0.486852,-0.14576 -0.381805,0.097812 -0.846436,0.170692s-0.74341,-0.07288 -0.872698,0.07288c-0.129289,0.147678 -0.309081,0.416182 -0.383826,0.243572c-0.076765,-0.168774 0.254537,-0.462212 0.125248,-0.560024c-0.125248,-0.097812 -0.666644,-0.047947 -0.741389,0.024933c-0.078785,0.07288 -0.028282,0.341385 0.022221,0.439197c0.052524,0.095895 0.129289,0.487144 -0.022221,0.414264c-0.15555,-0.07288 -0.129289,-0.31837 -0.284839,-0.291519c-0.15353,0.024933 -0.333322,0.097812 -0.410087,0.147678c-0.076765,0.047947 -0.385846,0.047947 -0.462611,0.14576c-0.074745,0.097812 0.028282,0.366317 -0.103027,0.389332c-0.127268,0.024933 -0.230295,0.122745 -0.513114,-0.047947c-0.282819,-0.170692 -0.282819,-0.07288 -0.359584,-0.023015c-0.076765,0.047947 -0.436349,0.243572 -0.462611,0.023015c-0.026262,-0.21864 0.050503,-0.291519 -0.179792,-0.439197c-0.232315,-0.14576 -0.052524,-0.14576 0.256557,-0.047947c0.30706,0.095895 0.692906,0.143842 1.256524,-0.024933c0.565638,-0.170692 0.797953,-0.243572 0.565638,-0.341385c-0.232315,-0.095895 -0.462611,-0.193707 -0.820175,-0.243572c-0.361604,-0.047947 -0.848457,-0.047947 -1.414094,-0.243572c-0.563618,-0.195625 -0.692906,-0.268505 -0.923202,-0.316452c-0.232315,-0.049865 -1.64237,-0.268505 -2.286793,-0.170692c-0.640383,0.097812 -2.410021,0.537009 -2.515068,0.609889s-0.258577,0.364399 -0.589879,0.609889c-0.333322,0.243572 -0.949463,0.803596 -1.438336,0.901409c-0.486852,0.097812 -1.05249,0.487144 -1.05249,0.584957c0,0.097812 0.204034,0.46413 0.15353,0.537009c-0.050503,0.07288 0.101007,0.439197 0.385846,0.537009c0.280799,0.095895 0.769671,0.07288 0.793913,-0.074798c0.028282,-0.14576 0.412107,-0.462212 0.438369,-0.243572c0.026262,0.220557 0.282819,0.560024 0.230295,0.705784c-0.050503,0.147678 0,0.293437 0.181812,0.268505c0.177772,-0.023015 1.129255,-0.21864 1.129255,-0.21864s0.309081,-0.122745 0.256557,-0.31837c-0.052524,-0.193707 0.335342,-0.462212 0.410087,-0.535092c0.076765,-0.07288 0.359584,-0.366317 0.028282,-0.462212c-0.337363,-0.097812 -0.591899,-0.122745 -0.232315,-0.414264s0.589879,0 1.05249,-0.439197c0.462611,-0.439197 -0.103027,-0.560024 0.385846,-0.584957c0.486852,-0.024933 1.001987,-0.047947 0.89694,0.097812c-0.101007,0.14576 -0.690886,0.46413 -1.026228,0.609889c-0.335342,0.147678 -0.282819,0.414264 -0.15353,0.560024c0.127268,0.14576 0.181812,0.487144 0.412107,0.439197c0.228275,-0.047947 0.513114,-0.21864 0.767651,-0.193707c0.258577,0.023015 0.773712,-0.024933 0.848457,-0.024933c0.078785,0 0.436349,0.341385 0.230295,0.389332c-0.204034,0.047947 -0.462611,0.024933 -0.89896,0.047947c-0.434329,0.024933 -0.921181,0.024933 -0.921181,0.097812c0,0.074798 0.589879,0.243572 0.383826,0.366317c-0.206054,0.120827 -0.410087,-0.024933 -0.668665,-0.049865c-0.256557,-0.023015 -0.410087,0.31837 -0.486852,0.512077c-0.078785,0.195625 0.127268,0.537009 -0.256557,0.414264c-0.385846,-0.120827 -0.668665,-0.120827 -0.769671,-0.07288c-0.103027,0.047947 -0.410087,0.14576 -0.668665,0.21864c-0.254537,0.07288 -0.15353,-0.120827 -0.488873,-0.120827c-0.331302,0 -0.331302,0 -0.331302,0l-0.208074,0.024933c0,0 -0.204034,-0.120827 -0.230295,-0.316452c-0.026262,-0.195625 0.101007,-0.414264 -0.026262,-0.462212c-0.129289,-0.049865 -0.589879,0.023015 -0.666644,0.168774c-0.076765,0.14576 -0.15555,0.414264 -0.052524,0.537009c0.105047,0.120827 0.412107,0.364399 0.129289,0.291519c-0.282819,-0.07288 -0.640383,-0.097812 -0.846436,0.049865c-0.204034,0.14576 -0.563618,0.462212 -0.563618,0.462212s-0.642403,0.047947 -0.642403,0.195625c0,0.147678 0,0.341385 -0.230295,0.366317c-0.232315,0.024933 -0.541396,0.095895 -0.848457,0.14576c-0.309081,0.047947 -0.280799,0.168774 -0.640383,0.195625s-0.412107,0.170692 -0.076765,0.21864c0.333322,0.047947 0.844416,0.243572 0.870678,0.462212c0.028282,0.21864 -0.026262,0.46413 -0.15353,0.682769c-0.086866,0.151513 -0.616141,0.049865 -0.925222,0.049865c-0.30706,0 -0.921181,-0.097812 -1.179759,0c-0.256557,0.097812 -0.206054,0.584957 -0.129289,0.803596c0.078785,0.21864 -0.024242,0.341385 -0.127268,0.414264c-0.103027,0.07288 -0.131309,0.291519 0,0.39125c0.127268,0.097812 0.230295,0.316452 0.335342,0.341385c0.103027,0.024933 0.434329,-0.07288 0.563618,0.047947c0.129289,0.122745 0.256557,0.414264 0.333322,0.341385c0.078785,-0.07288 0.179792,-0.389332 0.309081,-0.31837c0.129289,0.074798 0.436349,-0.023015 0.668665,-0.047947s0.357564,-0.268505 0.589879,-0.39125c0.230295,-0.120827 0.101007,-0.120827 0.026262,-0.268505c-0.076765,-0.14576 0.230295,-0.316452 0.412107,-0.487144c0.177772,-0.170692 0.511094,-0.024933 0.589879,-0.220557c0.076765,-0.195625 0.103027,-0.535092 0.30504,-0.512077c0.208074,0.024933 0.490893,0.14576 0.668665,0.14576c0.179792,0 0.563618,-0.268505 0.670685,-0.316452c0.101007,-0.047947 0.486852,-0.024933 0.539376,0.195625c0.050503,0.21864 0.486852,0.487144 0.589879,0.535092c0.103027,0.047947 0.769671,0.243572 0.874718,0.316452c0.101007,0.07288 0.254537,0.293437 0.30706,0.487144c0.050503,0.195625 0.230295,0.195625 0.258577,0.024933c0.024242,-0.170692 -0.131309,-0.487144 0.050503,-0.46413c0.177772,0.024933 0.385846,-0.049865 0.385846,-0.049865s-0.490893,-0.316452 -0.668665,-0.389332c-0.177772,-0.07288 -0.515134,-0.21864 -0.668665,-0.462212c-0.15353,-0.243572 -0.539376,-0.293437 -0.513114,-0.535092c0.026262,-0.243572 0.385846,-0.097812 0.589879,0.097812c0.206054,0.195625 0.719168,0.462212 0.89896,0.632904c0.177772,0.170692 0.462611,0.243572 0.539376,0.46413c0.078785,0.21864 0.30706,0.462212 0.383826,0.560024c0.076765,0.097812 0.333322,0.634822 0.412107,0.755649c0.076765,0.120827 0.333322,-0.023015 0.462611,-0.120827c0.127268,-0.097812 0.361604,-0.14576 0.385846,-0.341385c0.026262,-0.195625 -0.309081,-0.341385 -0.410087,-0.414264c-0.103027,-0.07288 0.256557,-0.14576 0.385846,-0.243572c0.127268,-0.095895 0.357564,-0.268505 0.460591,-0.120827c0.103027,0.147678 0.052524,0.730716 0.103027,0.828529c0.050503,0.097812 0.563618,0.243572 0.668665,0.366317c0.101007,0.120827 0.539376,0.170692 0.614121,0.097812c0.078785,-0.07288 0.488873,0.049865 0.59392,0.07288c0.098987,0.024933 0.408067,-0.047947 0.614121,-0.095895c0.208074,-0.047947 0.412107,-0.195625 0.385846,0.120827c-0.026262,0.316452 -0.103027,0.803596 -0.361604,1.047168c-0.256557,0.243572 -0.15353,0.366317 -0.408067,0.366317c-0.121208,0 -0.228275,0 -0.315141,0.040276c-0.082826,-0.124663 -0.197973,-0.224393 -0.353524,-0.186035c-0.30706,0.07288 -0.694926,0.07288 -0.949463,0.364399c-0.258577,0.293437 -0.359584,0.316452 -0.412107,0.21864c-0.050503,-0.097812 0.74543,-0.512077 0.640383,-0.634822c-0.101007,-0.120827 -0.717148,-0.07288 -1.05249,-0.07288c-0.335342,0 -0.616141,-0.195625 -0.874718,-0.243572c-0.254537,-0.047947 -0.589879,0.243572 -0.844416,0.487144c-0.258577,0.243572 -0.436349,0.07288 -0.668665,0.07288c-0.232315,0 -0.668665,-0.316452 -0.668665,-0.316452s-0.436349,-0.170692 -0.616141,-0.170692c-0.177772,0 -0.539376,-0.316452 -0.642403,-0.316452c-0.101007,0 -0.383826,-0.220557 -0.177772,-0.31837c0.204034,-0.095895 0.408067,0.097812 0.204034,-0.439197c-0.204034,-0.535092 -0.666644,-0.414264 -0.846436,-0.341385c-0.177772,0.074798 -1.462578,0.047947 -1.565604,0.047947c-0.103027,0 -0.846436,0.243572 -1.076732,0.341385c-0.234336,0.097812 -0.642403,0.220557 -0.74543,0.268505c-0.103027,0.047947 -0.642403,-0.097812 -0.874718,0.024933c-0.30504,0.161103 -0.587859,0.414264 -0.666644,0.414264c-0.076765,0 -0.309081,0.170692 -0.462611,0.537009c-0.15555,0.364399 0.026262,0.680851 -0.258577,0.803596c-0.280799,0.120827 -0.795933,0.39125 -0.999967,0.584957c-0.206054,0.193707 -0.462611,0.878394 -0.717148,1.194846c-0.256557,0.316452 0,0.607971 0.050503,0.803596c0.050503,0.193707 0.230295,0.560024 -0.050503,0.903327c-0.282819,0.341385 -0.256557,0.510159 -0.385846,0.535092c-0.127268,0.024933 0.127268,0.120827 0.177772,0.364399c0.050503,0.24549 -0.230295,0.489062 0.258577,0.707702c0.486852,0.216722 0.717148,0.416182 0.844416,0.703866c0.129289,0.293437 0.771691,0.780582 0.771691,0.780582s0.462611,0.393168 0.694926,0.561942c0.230295,0.170692 0.30706,0.07288 0.357564,-0.095895c0.050503,-0.17261 0.359584,-0.199461 0.717148,-0.199461c0.359584,0 0.616141,0.076716 0.975725,0.02685c0.359584,-0.047947 0.719168,-0.270423 0.848457,-0.31837c0.127268,-0.047947 0.563618,-0.314534 0.89492,-0.120827c0.335342,0.197543 0.284839,0.462212 0.464631,0.63674c0.177772,0.168774 0.484832,0.070962 0.717148,-0.097812c0.230295,-0.17261 0.129289,-0.09973 0.410087,0.047947c0.282819,0.143842 0.412107,0.289602 0.15555,0.512077c-0.258577,0.216722 -0.103027,0.561942 -0.258577,0.901409c-0.15353,0.341385 -0.127268,0.389332 0.15555,0.533174c0.282819,0.14576 0.795933,1.051004 0.949463,1.223614c0.15555,0.168774 -0.050503,0.655919 0.129289,0.949356c0.179792,0.289602 0.359584,0.487144 0.15555,0.634822c-0.208074,0.143842 -0.565638,0.414264 -0.589879,0.901409s0.103027,0.826611 0.206054,0.999221s0.357564,0.634822 0.486852,0.803596c0.129289,0.170692 0.282819,0.584957 0.30706,0.853461c0.026262,0.268505 -0.048483,0.586875 0.078785,0.730716c0.129289,0.14576 0.206054,0.366317 0.436349,0.560024c0.232315,0.197543 0.30706,0.609889 0.30706,0.609889s0.078785,0.170692 0.103027,0.439197c0.024242,0.268505 0.050503,0.437279 0.30706,0.560024c0.254537,0.120827 0.434329,0.14576 0.565638,0.024933c0.127268,-0.120827 0.769671,-0.147678 1.102994,-0.120827c0.333322,0.024933 0.717148,-0.143842 1.05249,-0.364399s0.822195,-0.803596 1.001987,-0.974289c0.179792,-0.17261 0.589879,-0.489062 0.541396,-0.682769c-0.050503,-0.193707 -0.15555,-0.389332 0.048483,-0.487144c0.206054,-0.09973 0.694926,-0.291519 0.719168,-0.439197c0.026262,-0.147678 -0.181812,-0.757567 -0.232315,-0.876476c-0.048483,-0.122745 0.129289,-0.34522 0.333322,-0.586875c0.208074,-0.24549 0.850477,-0.414264 0.951483,-0.512077c0.103027,-0.101648 0.385846,-0.512077 0.438369,-0.830447c0.048483,-0.320288 -0.103027,-0.707702 0,-0.876476c0.101007,-0.17261 0.026262,-0.316452 -0.208074,-0.513995c-0.230295,-0.195625 -0.179792,-0.780582 -0.256557,-0.876476c-0.074745,-0.097812 -0.026262,-0.611807 0.127268,-0.661672c0.15353,-0.044111 0.488873,-0.535092 0.694926,-0.753731c0.206054,-0.21864 0.795933,-0.901409 1.078752,-0.951274c0.280799,-0.047947 0.717148,-0.439197 0.74341,-0.657837c0.026262,-0.220557 0.767651,-1.049086 0.795933,-1.217861c0.026262,-0.17261 0.335342,-0.805514 0.206054,-0.953192c-0.125248,-0.14576 -1.129255,0.220557 -1.256524,0.270423c-0.129289,0.047947 -0.486852,0.243572 -0.90098,0.216722c-0.408067,-0.024933 -0.230295,-0.339467 -0.256557,-0.487144c-0.024242,-0.14576 -0.460591,-0.705784 -0.563618,-0.730716c-0.103027,-0.023015 -0.410087,-0.31837 -0.539376,-0.607971c-0.127268,-0.293437 -0.30706,-0.657837 -0.513114,-0.878394c-0.206054,-0.21864 -0.333322,-0.728799 -0.541396,-1.072101c-0.204034,-0.341385 -0.381805,-0.780582 -0.563618,-1.097034c-0.042423,-0.078634 -0.090906,-0.151513 -0.135349,-0.224393c0.238376,-0.055619 0.583819,-0.157267 0.626242,-0.017261c0.048483,0.168774 0.333322,0.535092 0.383826,0.803596s0.333322,0.170692 0.359584,0.414264c0.028282,0.24549 0.282819,0.830447 0.383826,0.901409c0.105047,0.07288 0.565638,0.46413 0.642403,0.609889c0.076765,0.14576 0.179792,0.341385 0.256557,0.707702c0.076765,0.364399 0.15353,0.851544 0.361604,0.924423c0.206054,0.07288 0.89694,-0.122745 1.026228,-0.195625s0.973705,-0.46413 1.282786,-0.489062c0.309081,-0.023015 0.361604,-0.220557 0.74341,-0.291519c0.385846,-0.07288 0.668665,-0.339467 0.925222,-0.537009c0.256557,-0.193707 0.565638,-0.680851 0.666644,-0.851544c0.105047,-0.168774 0.361604,-0.291519 0.232315,-0.485226c-0.127268,-0.197543 -0.668665,-0.487144 -0.874718,-0.513995c-0.206054,-0.023015 -0.179792,-0.341385 -0.30706,-0.341385s-0.103027,0.168774 -0.359584,0.293437c-0.256557,0.120827 -0.515134,0.364399 -0.694926,0.316452s0.052524,-0.170692 -0.228275,-0.389332s-0.387866,-0.268505 -0.387866,-0.437279c0,-0.170692 -0.561597,-0.489062 -0.614121,-0.732634c-0.052524,-0.243572 0.383826,-0.584957 0.513114,-0.364399c0.127268,0.21864 0.232315,0.560024 0.563618,0.705784c0.333322,0.14576 0.642403,0.39125 0.797953,0.439197c0.15353,0.047947 0.539376,-0.268505 0.666644,-0.21864c0.127268,0.046029 0.385846,0.485226 0.618161,0.560024c0.228275,0.07288 0.999967,0.097812 1.129255,0.097812s0.666644,0.024933 0.769671,-0.120827c0.103027,-0.14576 0.179792,-0.14576 0.309081,-0.14576c0.125248,0 0.357564,0.439197 0.539376,0.487144c0.179792,0.047947 0.513114,0.024933 0.486852,0.343302c-0.024242,0.314534 0.15353,0.584957 0.333322,0.607971c0.181812,0.023015 0.591899,-0.366317 0.591899,-0.366317s0,0.609889 -0.024242,0.830447c-0.028282,0.216722 0.280799,1.024154 0.280799,1.024154s0.383826,0.753731 0.486852,0.924423s0.539376,0.680851 0.539376,0.901409c0,0.220557 0.050503,0.561942 0.208074,0.561942c0.15353,0 0.30706,-0.389332 0.484832,-0.634822c0.183832,-0.241654 0.234336,-0.584957 0.309081,-0.828529c0.076765,-0.243572 0.076765,-0.682769 0.076765,-0.851544c0,-0.17261 0.15151,-0.31837 0.515134,-0.46413c0.359584,-0.14576 0.614121,-0.560024 0.921181,-0.780582c0.309081,-0.220557 0.284839,-0.584957 0.90098,-0.584957c0.616141,0 0.561597,0 0.717148,-0.147678c0.15353,-0.14576 0.30504,-0.243572 0.383826,0.024933c0.076765,0.268505 0.513114,0.657837 0.589879,0.755649c0.076765,0.09973 0.230295,0.366317 0.208074,0.659755c-0.026262,0.291519 0.024242,0.632904 0.15151,0.632904s0.385846,-0.414264 0.385846,-0.414264s0.563618,-0.362481 0.539376,0.024933c-0.028282,0.389332 0.050503,0.803596 0.050503,1.045251c0,0.101648 0.084846,0.258915 0.177772,0.402757c-0.010101,0.113156 -0.008081,0.228229 -0.018181,0.341385c-0.183832,0.046029 -0.185852,0.379742 -0.086866,0.50057zm-14.25003,-10.214687c0.15353,0.095895 0.206054,0.243572 0.30706,0.389332c0.105047,0.14576 0.282819,0.095895 0.410087,0.21864c0.127268,0.122745 -0.359584,0.268505 -0.15151,0.414264c0.204034,0.147678 0.30504,0.730716 0.333322,0.878394c0.026262,0.14576 -0.563618,0.21864 -0.74543,0.195625c-0.179792,-0.024933 -0.715128,-0.195625 -0.89896,-0.243572c-0.179792,-0.049865 -0.280799,-0.657837 -0.050503,-0.634822c0.234336,0.024933 0.284839,-0.047947 0.539376,-0.266587c0.258577,-0.220557 -0.381805,-0.31837 -0.561597,-0.366317c-0.179792,-0.047947 -0.541396,-0.584957 -0.668665,-0.755649c-0.125248,-0.170692 -0.028282,-0.437279 0.284839,-0.634822c0.15353,-0.097812 0.563618,0.120827 0.769671,0c0.204034,-0.120827 0.410087,-0.268505 0.486852,-0.316452c0.078785,-0.047947 0.591899,0.07288 0.666644,0.21864c0.078785,0.14576 0.385846,0.366317 0.284839,0.439197c-0.105047,0.07288 -0.567658,0.14576 -0.719168,0c-0.15151,-0.147678 -0.515134,0.023015 -0.541396,0.291519c-0.028282,0.270423 0.103027,0.074798 0.254537,0.17261zm-7.084613,0.414264c-0.15555,-0.047947 0.050503,-0.341385 0.206054,-0.439197c0.15151,-0.097812 0.331302,-0.341385 0.486852,-0.584957c0.15353,-0.243572 0.359584,-0.268505 0.486852,-0.243572c0.127268,0.024933 0.410087,0.462212 0.486852,0.609889c0.076765,0.14576 0.333322,-0.049865 0.438369,-0.097812c0.101007,-0.047947 0.256557,-0.195625 0.282819,-0.316452s0.256557,-0.195625 0.513114,-0.195625s0.026262,0.195625 -0.15353,0.243572c-0.181812,0.047947 -0.076765,0.147678 0.228275,0.243572c0.309081,0.097812 0.591899,0.366317 0.927242,0.535092c0.333322,0.170692 0.383826,0.512077 0.177772,0.560024c-0.204034,0.047947 -0.820175,0.097812 -1.05249,0.07288c-0.230295,-0.024933 -0.513114,-0.243572 -0.846436,-0.293437c-0.333322,-0.047947 -0.74543,-0.024933 -0.874718,0.147678s-0.589879,0.095895 -0.797953,0.095895c-0.206054,0 -0.460591,0.243572 -0.511094,0.147678c0.00202,0.001918 0.15555,-0.435361 0.00202,-0.485226zm0.872698,-5.412288c0.127268,-0.341385 0.846436,0.07288 0.717148,0.243572c-0.127268,0.17261 -0.804014,-0.011507 -0.717148,-0.243572zm0.999967,17.502673c0.127268,0.195625 -0.282819,0.826611 -0.513114,0.780582c-0.228275,-0.051783 -0.15353,-0.609889 -0.076765,-0.732634c0.076765,-0.122745 0.523215,-0.153431 0.589879,-0.047947zm-9.318882,-11.334736c0.050503,-0.097812 -0.078785,-0.293437 -0.256557,-0.024933c-0.060604,0.093977 0.206054,0.122745 0.256557,0.024933zm15.401507,-8.897096c0.284839,0.14576 0.684826,0.205214 0.874718,0.024933c0.15353,-0.14576 0.026262,-0.39125 -0.101007,-0.414264c-0.129289,-0.024933 -0.210094,-0.220557 0.125248,-0.389332c0.333322,-0.170692 0.692906,-0.39125 1.078752,-0.439197c0.383826,-0.047947 1.256524,-0.07288 1.563584,0c0.30706,0.074798 0.771691,-0.31837 0.89896,-0.487144s-0.410087,-0.291519 -0.563618,-0.097812c-0.15555,0.195625 -0.89694,0.14576 -1.05249,0.097812c-0.15353,-0.047947 -1.385812,0.195625 -1.640349,0.195625c-0.258577,0 -0.361604,0.291519 -0.719168,0.439197c-0.361604,0.14576 -0.848457,0.366317 -1.028249,0.439197c-0.177772,0.07288 -0.357564,0.364399 -0.204034,0.414264c0.15353,0.047947 0.486852,0.070962 0.767651,0.216722zm-13.476319,8.897096c0.129289,-0.170692 -0.103027,-0.416182 -0.230295,-0.416182c-0.242416,0 -0.359584,0.366317 -0.208074,0.487144c0.15555,0.124663 0.309081,0.09973 0.438369,-0.070962zm1.155517,0.657837c0.129289,0.047947 0.230295,0.195625 0.333322,0.21864c0.105047,0.024933 0.438369,0 0.337363,-0.243572s-0.337363,-0.243572 -0.412107,-0.243572c-0.076765,0 -0.410087,-0.07288 -0.539376,0c-0.094946,0.053701 0.15151,0.220557 0.280799,0.268505zm-6.880579,-3.948938c0.204034,0.024933 0.438369,-0.120827 0.616141,-0.193707c0.177772,-0.07288 0.436349,-0.21864 0.436349,-0.439197c0,-0.21864 -0.050503,-0.414264 -0.15555,-0.512077c-0.103027,-0.097812 -0.282819,-0.122745 -0.436349,-0.097812c-0.232315,0.038358 -0.256557,0.268505 -0.410087,0.268505c-0.15353,0 -0.333322,0.047947 -0.282819,0.21864s0.15555,0.291519 0,0.364399c-0.15353,0.074798 0.024242,0.368235 0.232315,0.39125zm1.258544,-1.047168c0.256557,0.097812 0.795933,0.195625 0.589879,0.293437c-0.206054,0.097812 -0.565638,0.364399 -0.616141,0.512077s0.436349,0.293437 0.436349,0.293437s-0.15555,0.170692 -0.026262,0.21864c0.127268,0.047947 0.206054,-0.170692 0.410087,-0.170692c0.204034,0 0.614121,0.120827 0.820175,0.120827c0.208074,0 0.539376,-0.268505 0.513114,-0.439197c-0.026262,-0.170692 -0.282819,-0.439197 -0.513114,-0.537009c-0.228275,-0.097812 -0.486852,-0.537009 -0.640383,-0.634822c-0.15353,-0.097812 0.15353,-0.341385 -0.026262,-0.512077c-0.181812,-0.170692 -0.309081,-0.14576 -0.515134,-0.268505c-0.206054,-0.120827 -0.385846,0.024933 -0.513114,0.170692c-0.127268,0.14576 -0.282819,-0.024933 -0.438369,0.023015c-0.206054,0.067126 -0.127268,0.31837 -0.024242,0.439197c0.105047,0.124663 0.286859,0.393168 0.543416,0.49098zm25.853684,13.014808c-0.167671,0.070962 -0.309081,0.901409 0,0.999221c0.30706,0.09973 0.486852,-0.387414 0.385846,-0.512077c-0.105047,-0.118909 -0.15555,-0.584957 -0.385846,-0.487144zm-9.322922,6.263832c-0.321201,-0.086305 -0.357564,0.31837 -0.614121,0.586875c-0.258577,0.270423 -0.539376,0.487144 -0.640383,0.462212c-0.105047,-0.024933 -0.668665,0.170692 -0.488873,0.535092c0.179792,0.366317 0.15353,0.732634 -0.026262,0.905245c-0.179792,0.168774 0.15353,0.655919 0.105047,0.924423c-0.052524,0.266587 0.074745,0.439197 0.434329,0.439197s0.488873,-0.122745 0.642403,-0.439197c0.15353,-0.31837 0.177772,-0.634822 0.331302,-0.901409c0.15555,-0.270423 0.284839,-0.832365 0.361604,-0.978124c0.076765,-0.143842 0.230295,-0.606054 0.206054,-0.876476c-0.028282,-0.264669 -0.129289,-0.609889 -0.311101,-0.657837zm-19.64177,-22.366445c-0.139389,-0.115073 -0.462611,-0.195625 -0.618161,-0.210968c-0.15353,-0.015343 -0.30706,0.115073 -0.648463,0.115073c-0.339383,0 -0.563618,0.128499 -0.700987,0c-0.137369,-0.130417 -0.705027,-0.195625 -0.757551,-0.115073c-0.068685,0.10932 -0.204034,0.113156 -0.068685,0.341385c0.139389,0.226311 0.242416,0.356728 0.361604,0.341385s0.529275,-0.032604 0.581799,0.097812c0.050503,0.130417 0.189893,0.243572 0.478772,0.163021c0.29292,-0.080551 0.531295,-0.130417 0.59796,-0.228229c0.066664,-0.097812 0.531295,-0.113156 0.531295,-0.113156s0.377765,-0.278094 0.242416,-0.39125z" stroke-opacity="null" stroke-width="0" fill="#e50d76"/>
  <g stroke="null" transform="rotate(-0.2523995339870453 29.500001907349876,31.629869461059034) " opacity="0.9" id="svg_10">
   <rect stroke="#000" rx="6" id="svg_7" height="11.692844" width="43.233911" y="25.783448" x="7.883047" stroke-opacity="null" stroke-width="0" fill="#00bf5f"/>
   <text stroke="#000" transform="matrix(0.27711991443680145,0,0,0.2621840436858891,-2.5030307932207627,53.4757894248667) " xml:space="preserve" text-anchor="start" font-family="Helvetica, Arial, sans-serif" font-size="24" id="svg_6" y="-75.179266" x="47.066179" stroke-opacity="null" stroke-width="0" fill="#000000">Где купить?</text>
  </g>
 </g>
</svg>